<svg version="1.1" id="Layer_1" xmlns="http://www.w3.org/2000/svg" xmlns:xlink="http://www.w3.org/1999/xlink" x="0px" y="0px"
	 width="100%" viewBox="0 0 1000 500" enable-background="new 0 0 1000 500" xml:space="preserve">
<path fill="#000000" opacity="1.000000" stroke="none" 
	d="
M911.000000,501.000000 
	C607.383850,501.000000 304.267639,501.000000 1.075732,501.000000 
	C1.075732,334.411621 1.075732,167.823166 1.075732,1.117366 
	C334.333313,1.117366 667.666626,1.117366 1000.992310,1.117366 
	C1000.992310,167.732437 1000.992310,334.366211 1000.988464,501.000000 
	C971.156433,501.000000 941.328186,501.000000 911.000000,501.000000 
M511.776031,290.234222 
	C514.180054,290.489471 516.582092,290.936920 518.988586,290.962219 
	C525.024414,291.025665 529.736267,287.500366 530.913208,281.690369 
	C531.651917,278.043823 531.922058,274.251984 531.953674,270.521545 
	C532.070312,256.759247 532.000000,242.995316 532.000000,229.261047 
	C529.067688,229.261047 526.663330,229.261047 524.000000,229.261047 
	C524.000000,245.478012 523.867981,261.437134 524.091492,277.391235 
	C524.148438,281.457428 521.936951,283.149109 518.830017,283.888855 
	C515.198486,284.753479 512.904785,282.647705 512.023254,279.178253 
	C511.511078,277.162476 511.055725,275.064178 511.043976,273.000336 
	C510.961182,258.404938 511.000000,243.808868 511.000000,229.264526 
	C508.390717,229.264526 506.322784,229.264526 504.000000,229.264526 
	C504.000000,244.986053 504.175537,260.447449 503.913544,275.901367 
	C503.808807,282.079102 505.977570,286.634430 511.776031,290.234222 
M449.000031,242.940582 
	C449.905029,237.162872 451.418640,235.710815 456.327423,236.005676 
	C461.094940,236.292068 462.225281,239.345383 462.018372,243.479599 
	C461.913422,245.576660 462.000000,247.683304 462.000000,249.733429 
	C464.961639,249.733429 467.370575,249.733429 470.574982,249.733429 
	C469.843140,245.225388 469.478119,241.024353 468.430969,237.000870 
	C466.994537,231.481720 461.703003,228.027802 455.538269,228.000366 
	C449.328278,227.972733 443.627716,231.834412 442.297638,237.324509 
	C441.574097,240.310928 441.026428,243.439392 441.069672,246.494293 
	C441.226257,257.559143 441.576202,268.623749 442.037476,279.680725 
	C442.272095,285.303955 446.553680,290.185608 451.492950,290.991730 
	C459.250885,292.257874 465.839508,290.041656 467.708282,284.312897 
	C469.466522,278.922852 469.752045,273.052399 470.704803,267.276428 
	C467.033447,267.276428 464.627747,267.276428 461.998993,267.276428 
	C461.998993,271.023621 462.592010,274.640900 461.794647,277.920074 
	C461.245026,280.180481 459.118591,282.878876 457.041901,283.676636 
	C455.488586,284.273376 452.427216,282.614746 450.900024,281.094025 
	C449.619293,279.818695 449.111298,277.298645 449.079346,275.316467 
	C448.910339,264.831787 449.000000,254.342941 449.000031,242.940582 
M592.997498,246.633102 
	C591.829407,240.816650 590.661377,235.000183 589.509338,229.263428 
	C586.984558,229.263428 584.556824,229.263428 581.666626,229.263428 
	C585.505798,249.684891 589.281067,269.766632 593.084900,290.000000 
	C595.152100,290.000000 596.818970,289.843445 598.446350,290.030334 
	C602.737671,290.523193 604.488831,289.349487 605.224060,284.426422 
	C607.270630,270.723999 610.369751,257.180389 612.968994,243.558014 
	C613.864990,238.862045 614.513000,234.118759 615.304626,229.208786 
	C612.437622,229.208786 610.342651,229.208786 608.052612,229.208786 
	C605.679993,242.723419 603.384644,256.078400 600.917725,269.401611 
	C600.680664,270.681915 599.377197,271.764740 597.898987,273.912384 
	C596.102844,264.234467 594.551392,255.875153 592.997498,246.633102 
M549.687195,283.998047 
	C542.399597,282.794922 544.612061,276.502075 543.700989,272.341797 
	C541.228394,272.341797 539.156006,272.341797 537.000000,272.341797 
	C537.000000,274.841400 536.929871,277.002350 537.013733,279.157288 
	C537.223877,284.557953 541.293152,289.865509 545.983215,290.958344 
	C553.246826,292.650848 560.296204,290.001709 562.861633,284.366669 
	C567.536011,274.099274 564.070435,266.035248 556.141052,259.030457 
	C551.516663,254.945297 545.780762,251.549301 544.683289,244.961029 
	C544.250122,242.360107 545.514343,238.907104 547.182617,236.753906 
	C548.083374,235.591278 552.102600,235.448105 553.567627,236.477631 
	C555.344482,237.726196 556.006897,240.658295 556.947632,242.945786 
	C557.276428,243.745178 557.000122,244.793411 557.000122,245.780396 
	C559.915588,245.780396 562.345337,245.780396 565.491943,245.780396 
	C564.670288,242.502747 563.856934,239.612366 563.229370,236.682205 
	C561.876709,230.367706 556.673767,228.783951 551.593994,228.192413 
	C546.880615,227.643524 542.101013,229.071213 539.212646,233.495621 
	C534.465027,240.768219 537.247803,254.332718 544.148865,259.702728 
	C547.900818,262.622314 551.519470,265.811615 554.723633,269.313507 
	C559.472473,274.503571 557.025940,282.489227 549.687195,283.998047 
M357.000000,246.501251 
	C357.000000,260.928802 357.000000,275.356354 357.000000,289.723541 
	C365.987213,289.723541 374.401764,289.723541 382.719513,289.723541 
	C382.719513,287.371887 382.719513,285.301910 382.719513,282.836731 
	C376.701019,282.836731 370.954285,282.836731 365.285583,282.836731 
	C365.285583,276.023193 365.285583,269.618500 365.285583,262.831390 
	C370.318878,262.831390 375.073700,262.831390 379.717529,262.831390 
	C379.717529,260.367645 379.717529,258.297577 379.717529,255.832550 
	C374.695892,255.832550 369.945709,255.832550 365.287903,255.832550 
	C365.287903,249.019485 365.287903,242.615128 365.287903,235.828491 
	C371.324463,235.828491 377.077240,235.828491 382.715240,235.828491 
	C382.715240,233.364731 382.715240,231.294800 382.715240,229.286850 
	C374.022766,229.286850 365.617767,229.286850 357.000000,229.286850 
	C357.000000,234.881943 357.000000,240.191879 357.000000,246.501251 
M619.000000,251.500061 
	C619.000000,264.261688 619.000000,277.023315 619.000000,289.723511 
	C627.987305,289.723511 636.401794,289.723511 644.719482,289.723511 
	C644.719482,287.371857 644.719482,285.301849 644.719482,282.836670 
	C638.700012,282.836670 632.952637,282.836670 627.285645,282.836670 
	C627.285645,276.023438 627.285645,269.617493 627.285645,262.831390 
	C632.320129,262.831390 637.074402,262.831390 641.717529,262.831390 
	C641.717529,260.367676 641.717529,258.297577 641.717529,255.832596 
	C636.695923,255.832596 631.945740,255.832596 627.287842,255.832596 
	C627.287842,249.019775 627.287842,242.614105 627.287842,235.828613 
	C633.324280,235.828613 639.077087,235.828613 644.715332,235.828613 
	C644.715332,233.364853 644.715332,231.294907 644.715332,229.286789 
	C636.022888,229.286789 627.617920,229.286789 619.000000,229.286789 
	C619.000000,236.547699 619.000000,243.523911 619.000000,251.500061 
M416.036133,227.700790 
	C415.536774,229.533890 415.037445,231.367004 414.538086,233.200104 
	C414.202698,233.118332 413.867279,233.036560 413.531891,232.954773 
	C412.145691,227.604523 410.759491,222.254272 409.373291,216.904022 
	C408.915527,216.976501 408.457764,217.048981 408.000000,217.121445 
	C408.000000,218.714706 407.959686,220.309143 408.006500,221.901031 
	C408.327454,232.818893 408.763702,243.734406 408.968445,254.654327 
	C409.124207,262.963226 406.525726,266.136353 398.605042,267.992340 
	C393.807068,269.116608 390.701447,272.931000 391.395020,276.847870 
	C392.363922,282.319794 395.643372,285.245605 400.532166,284.999664 
	C405.045227,284.772675 408.510803,280.674622 409.089417,275.942657 
	C409.691193,271.021759 410.924408,266.168427 412.082825,261.333801 
	C412.296082,260.443665 413.673828,259.039917 414.157013,259.172668 
	C415.151459,259.445953 416.436584,260.466278 416.668701,261.408997 
	C417.935608,266.554321 419.254852,271.727844 419.904053,276.972382 
	C420.532532,282.049500 423.208862,285.024841 428.424286,284.980621 
	C431.187256,284.957153 433.948547,284.734100 436.220886,284.624725 
	C436.484314,282.614227 436.666840,280.701324 436.994812,278.813660 
	C438.032806,272.839752 435.423920,269.061951 429.458344,267.993164 
	C423.040985,266.843445 418.608856,260.205994 418.895874,254.563797 
	C419.443756,243.794754 419.054993,232.978088 419.054993,222.181183 
	C418.835480,222.050964 418.615967,221.920761 418.396484,221.790543 
	C417.765686,223.525101 417.134888,225.259659 416.036133,227.700790 
M483.000000,235.577835 
	C483.000000,233.465820 483.000000,231.353790 483.000000,229.257538 
	C480.075592,229.257538 477.670776,229.257538 475.261963,229.257538 
	C475.261963,249.588272 475.261963,269.660400 475.261963,289.742981 
	C483.606781,289.742981 491.687500,289.742981 499.742126,289.742981 
	C499.742126,287.408508 499.742126,285.337158 499.742126,282.875610 
	C494.078430,282.875610 488.660553,282.875610 483.000000,282.875610 
	C483.000000,267.170288 483.000000,251.866974 483.000000,235.577835 
M570.000000,258.500000 
	C570.000000,268.910522 570.000000,279.321045 570.000000,289.770447 
	C572.551208,289.770447 574.616516,289.770447 576.679688,289.770447 
	C576.679688,269.387238 576.679688,249.235214 576.679688,229.324158 
	C574.278931,229.324158 572.218018,229.324158 570.000000,229.324158 
	C570.000000,238.931534 570.000000,248.215775 570.000000,258.500000 
z"/>
<path fill="#FFFFFF" opacity="1.000000" stroke="none" 
	d="
M511.384644,290.118591 
	C505.977570,286.634430 503.808807,282.079102 503.913544,275.901367 
	C504.175537,260.447449 504.000000,244.986053 504.000000,229.264526 
	C506.322784,229.264526 508.390717,229.264526 511.000000,229.264526 
	C511.000000,243.808868 510.961182,258.404938 511.043976,273.000336 
	C511.055725,275.064178 511.511078,277.162476 512.023254,279.178253 
	C512.904785,282.647705 515.198486,284.753479 518.830017,283.888855 
	C521.936951,283.149109 524.148438,281.457428 524.091492,277.391235 
	C523.867981,261.437134 524.000000,245.478012 524.000000,229.261047 
	C526.663330,229.261047 529.067688,229.261047 532.000000,229.261047 
	C532.000000,242.995316 532.070312,256.759247 531.953674,270.521545 
	C531.922058,274.251984 531.651917,278.043823 530.913208,281.690369 
	C529.736267,287.500366 525.024414,291.025665 518.988586,290.962219 
	C516.582092,290.936920 514.180054,290.489471 511.384644,290.118591 
z"/>
<path fill="#FFFFFF" opacity="1.000000" stroke="none" 
	d="
M449.000000,243.398056 
	C449.000000,254.342941 448.910339,264.831787 449.079346,275.316467 
	C449.111298,277.298645 449.619293,279.818695 450.900024,281.094025 
	C452.427216,282.614746 455.488586,284.273376 457.041901,283.676636 
	C459.118591,282.878876 461.245026,280.180481 461.794647,277.920074 
	C462.592010,274.640900 461.998993,271.023621 461.998993,267.276428 
	C464.627747,267.276428 467.033447,267.276428 470.704803,267.276428 
	C469.752045,273.052399 469.466522,278.922852 467.708282,284.312897 
	C465.839508,290.041656 459.250885,292.257874 451.492950,290.991730 
	C446.553680,290.185608 442.272095,285.303955 442.037476,279.680725 
	C441.576202,268.623749 441.226257,257.559143 441.069672,246.494293 
	C441.026428,243.439392 441.574097,240.310928 442.297638,237.324509 
	C443.627716,231.834412 449.328278,227.972733 455.538269,228.000366 
	C461.703003,228.027802 466.994537,231.481720 468.430969,237.000870 
	C469.478119,241.024353 469.843140,245.225388 470.574982,249.733429 
	C467.370575,249.733429 464.961639,249.733429 462.000000,249.733429 
	C462.000000,247.683304 461.913422,245.576660 462.018372,243.479599 
	C462.225281,239.345383 461.094940,236.292068 456.327423,236.005676 
	C451.418640,235.710815 449.905029,237.162872 449.000000,243.398056 
z"/>
<path fill="#FFFFFF" opacity="1.000000" stroke="none" 
	d="
M592.998779,247.074463 
	C594.551392,255.875153 596.102844,264.234467 597.898987,273.912384 
	C599.377197,271.764740 600.680664,270.681915 600.917725,269.401611 
	C603.384644,256.078400 605.679993,242.723419 608.052612,229.208786 
	C610.342651,229.208786 612.437622,229.208786 615.304626,229.208786 
	C614.513000,234.118759 613.864990,238.862045 612.968994,243.558014 
	C610.369751,257.180389 607.270630,270.723999 605.224060,284.426422 
	C604.488831,289.349487 602.737671,290.523193 598.446350,290.030334 
	C596.818970,289.843445 595.152100,290.000000 593.084900,290.000000 
	C589.281067,269.766632 585.505798,249.684891 581.666626,229.263428 
	C584.556824,229.263428 586.984558,229.263428 589.509338,229.263428 
	C590.661377,235.000183 591.829407,240.816650 592.998779,247.074463 
z"/>
<path fill="#FFFFFF" opacity="1.000000" stroke="none" 
	d="
M550.099976,283.998901 
	C557.025940,282.489227 559.472473,274.503571 554.723633,269.313507 
	C551.519470,265.811615 547.900818,262.622314 544.148865,259.702728 
	C537.247803,254.332718 534.465027,240.768219 539.212646,233.495621 
	C542.101013,229.071213 546.880615,227.643524 551.593994,228.192413 
	C556.673767,228.783951 561.876709,230.367706 563.229370,236.682205 
	C563.856934,239.612366 564.670288,242.502747 565.491943,245.780396 
	C562.345337,245.780396 559.915588,245.780396 557.000122,245.780396 
	C557.000122,244.793411 557.276428,243.745178 556.947632,242.945786 
	C556.006897,240.658295 555.344482,237.726196 553.567627,236.477631 
	C552.102600,235.448105 548.083374,235.591278 547.182617,236.753906 
	C545.514343,238.907104 544.250122,242.360107 544.683289,244.961029 
	C545.780762,251.549301 551.516663,254.945297 556.141052,259.030457 
	C564.070435,266.035248 567.536011,274.099274 562.861633,284.366669 
	C560.296204,290.001709 553.246826,292.650848 545.983215,290.958344 
	C541.293152,289.865509 537.223877,284.557953 537.013733,279.157288 
	C536.929871,277.002350 537.000000,274.841400 537.000000,272.341797 
	C539.156006,272.341797 541.228394,272.341797 543.700989,272.341797 
	C544.612061,276.502075 542.399597,282.794922 550.099976,283.998901 
z"/>
<path fill="#FFFFFF" opacity="1.000000" stroke="none" 
	d="
M357.000000,246.001526 
	C357.000000,240.191879 357.000000,234.881943 357.000000,229.286850 
	C365.617767,229.286850 374.022766,229.286850 382.715240,229.286850 
	C382.715240,231.294800 382.715240,233.364731 382.715240,235.828491 
	C377.077240,235.828491 371.324463,235.828491 365.287903,235.828491 
	C365.287903,242.615128 365.287903,249.019485 365.287903,255.832550 
	C369.945709,255.832550 374.695892,255.832550 379.717529,255.832550 
	C379.717529,258.297577 379.717529,260.367645 379.717529,262.831390 
	C375.073700,262.831390 370.318878,262.831390 365.285583,262.831390 
	C365.285583,269.618500 365.285583,276.023193 365.285583,282.836731 
	C370.954285,282.836731 376.701019,282.836731 382.719513,282.836731 
	C382.719513,285.301910 382.719513,287.371887 382.719513,289.723541 
	C374.401764,289.723541 365.987213,289.723541 357.000000,289.723541 
	C357.000000,275.356354 357.000000,260.928802 357.000000,246.001526 
z"/>
<path fill="#FFFFFF" opacity="1.000000" stroke="none" 
	d="
M619.000000,251.000092 
	C619.000000,243.523911 619.000000,236.547699 619.000000,229.286789 
	C627.617920,229.286789 636.022888,229.286789 644.715332,229.286789 
	C644.715332,231.294907 644.715332,233.364853 644.715332,235.828613 
	C639.077087,235.828613 633.324280,235.828613 627.287842,235.828613 
	C627.287842,242.614105 627.287842,249.019775 627.287842,255.832596 
	C631.945740,255.832596 636.695923,255.832596 641.717529,255.832596 
	C641.717529,258.297577 641.717529,260.367676 641.717529,262.831390 
	C637.074402,262.831390 632.320129,262.831390 627.285645,262.831390 
	C627.285645,269.617493 627.285645,276.023438 627.285645,282.836670 
	C632.952637,282.836670 638.700012,282.836670 644.719482,282.836670 
	C644.719482,285.301849 644.719482,287.371857 644.719482,289.723511 
	C636.401794,289.723511 627.987305,289.723511 619.000000,289.723511 
	C619.000000,277.023315 619.000000,264.261688 619.000000,251.000092 
z"/>
<path fill="#FFFFFF" opacity="1.000000" stroke="none" 
	d="
M416.270111,227.347504 
	C417.134888,225.259659 417.765686,223.525101 418.396484,221.790543 
	C418.615967,221.920761 418.835480,222.050964 419.054993,222.181183 
	C419.054993,232.978088 419.443756,243.794754 418.895874,254.563797 
	C418.608856,260.205994 423.040985,266.843445 429.458344,267.993164 
	C435.423920,269.061951 438.032806,272.839752 436.994812,278.813660 
	C436.666840,280.701324 436.484314,282.614227 436.220886,284.624725 
	C433.948547,284.734100 431.187256,284.957153 428.424286,284.980621 
	C423.208862,285.024841 420.532532,282.049500 419.904053,276.972382 
	C419.254852,271.727844 417.935608,266.554321 416.668701,261.408997 
	C416.436584,260.466278 415.151459,259.445953 414.157013,259.172668 
	C413.673828,259.039917 412.296082,260.443665 412.082825,261.333801 
	C410.924408,266.168427 409.691193,271.021759 409.089417,275.942657 
	C408.510803,280.674622 405.045227,284.772675 400.532166,284.999664 
	C395.643372,285.245605 392.363922,282.319794 391.395020,276.847870 
	C390.701447,272.931000 393.807068,269.116608 398.605042,267.992340 
	C406.525726,266.136353 409.124207,262.963226 408.968445,254.654327 
	C408.763702,243.734406 408.327454,232.818893 408.006500,221.901031 
	C407.959686,220.309143 408.000000,218.714706 408.000000,217.121445 
	C408.457764,217.048981 408.915527,216.976501 409.373291,216.904022 
	C410.759491,222.254272 412.145691,227.604523 413.531891,232.954773 
	C413.867279,233.036560 414.202698,233.118332 414.538086,233.200104 
	C415.037445,231.367004 415.536774,229.533890 416.270111,227.347504 
M405.998383,275.679993 
	C405.205536,274.495056 404.537018,273.198700 403.594879,272.147552 
	C401.364227,269.658783 398.933807,269.622162 396.539307,271.969360 
	C394.257660,274.205902 392.892395,276.902374 395.359497,279.559204 
	C396.602966,280.898254 399.438843,282.315063 400.678223,281.755463 
	C402.812256,280.791962 404.261047,278.310822 405.998383,275.679993 
M432.972046,272.735474 
	C430.289429,269.980682 426.901398,268.957306 424.577545,272.253418 
	C423.272675,274.104248 423.367279,277.820343 424.330353,280.047974 
	C424.871399,281.299408 428.973297,282.293427 430.572906,281.527618 
	C433.537598,280.108307 435.615631,277.246765 432.972046,272.735474 
z"/>
<path fill="#FFFFFF" opacity="1.000000" stroke="none" 
	d="
M483.000000,236.070740 
	C483.000000,251.866974 483.000000,267.170288 483.000000,282.875610 
	C488.660553,282.875610 494.078430,282.875610 499.742126,282.875610 
	C499.742126,285.337158 499.742126,287.408508 499.742126,289.742981 
	C491.687500,289.742981 483.606781,289.742981 475.261963,289.742981 
	C475.261963,269.660400 475.261963,249.588272 475.261963,229.257538 
	C477.670776,229.257538 480.075592,229.257538 483.000000,229.257538 
	C483.000000,231.353790 483.000000,233.465820 483.000000,236.070740 
z"/>
<path fill="#FFFFFF" opacity="1.000000" stroke="none" 
	d="
M570.000000,258.000000 
	C570.000000,248.215775 570.000000,238.931534 570.000000,229.324158 
	C572.218018,229.324158 574.278931,229.324158 576.679688,229.324158 
	C576.679688,249.235214 576.679688,269.387238 576.679688,289.770447 
	C574.616516,289.770447 572.551208,289.770447 570.000000,289.770447 
	C570.000000,279.321045 570.000000,268.910522 570.000000,258.000000 
z"/>
<path fill="#000000" opacity="1.000000" stroke="none" 
	d="
M405.997925,276.073303 
	C404.261047,278.310822 402.812256,280.791962 400.678223,281.755463 
	C399.438843,282.315063 396.602966,280.898254 395.359497,279.559204 
	C392.892395,276.902374 394.257660,274.205902 396.539307,271.969360 
	C398.933807,269.622162 401.364227,269.658783 403.594879,272.147552 
	C404.537018,273.198700 405.205536,274.495056 405.997925,276.073303 
z"/>
<path fill="#000000" opacity="1.000000" stroke="none" 
	d="
M433.018585,273.136505 
	C435.615631,277.246765 433.537598,280.108307 430.572906,281.527618 
	C428.973297,282.293427 424.871399,281.299408 424.330353,280.047974 
	C423.367279,277.820343 423.272675,274.104248 424.577545,272.253418 
	C426.901398,268.957306 430.289429,269.980682 433.018585,273.136505 
z"/>
</svg>